<svg width="138" height="138" viewBox="0 0 138 138" fill="none" xmlns="http://www.w3.org/2000/svg">
<path d="M50 0H12.5C9.18479 0 6.00537 1.31696 3.66117 3.66117C1.31696 6.00537 0 9.18479 0 12.5V93.75C0 97.0652 1.31696 100.245 3.66117 102.589C6.00537 104.933 9.18479 106.25 12.5 106.25H50C53.3152 106.25 56.4946 104.933 58.8388 102.589C61.183 100.245 62.5 97.0652 62.5 93.75V12.5C62.5 9.18479 61.183 6.00537 58.8388 3.66117C56.4946 1.31696 53.3152 0 50 0ZM50 87.5H12.5V12.5H50V87.5ZM125 75H75V87.5H125V125H50V118.75H31.25V125C31.25 128.315 32.567 131.495 34.9112 133.839C37.2554 136.183 40.4348 137.5 43.75 137.5H125C128.315 137.5 131.495 136.183 133.839 133.839C136.183 131.495 137.5 128.315 137.5 125V87.5C137.5 84.1848 136.183 81.0054 133.839 78.6612C131.495 76.317 128.315 75 125 75ZM137.5 56.25L112.5 43.75L124.438 38.0625C120.848 29.5703 114.84 22.3221 107.16 17.2209C99.4804 12.1196 90.4695 9.39103 81.25 9.375V0C96.1684 0 110.476 5.92632 121.025 16.4752C131.574 27.0242 137.5 41.3316 137.5 56.25Z" fill="#213D49"/>
</svg>
